<svg xmlns="http://www.w3.org/2000/svg" xml:space="preserve" id="Warstwa_1" x="0" y="0" viewBox="0 0 286.1 65.2"><style>.st0{fill:#878787}</style><path d="M0 41c0-8.9 5.3-14.1 15.5-14.1 8.1 0 13 3.3 15 10 .2.6 0 1-.5 1.2l-1.2.4c-.6.2-.9 0-1.2-.6-1.7-5.7-5.2-8.2-12.2-8.2-8.1 0-12.3 4.1-12.3 11.1v11.3c0 7 4.4 11.2 12.3 11.2 6.9 0 10.7-2.8 12.3-8.6q.3-.9 1.2-.6l1.3.4c.6.2.7.7.5 1.2-2.1 7-7.3 10.5-15.3 10.5C5.4 66.2 0 61 0 52.1zm33.7-1.3c0-7.8 6-12.8 15.5-12.8 9.6 0 15.6 4.9 15.6 12.8v13.8c0 7.8-6 12.7-15.6 12.7-9.5 0-15.5-4.9-15.5-12.7zm28-.1c0-6.1-4.9-9.9-12.5-9.9-7.5 0-12.4 3.8-12.4 9.9v13.9c0 6 4.9 9.9 12.4 9.9 7.6 0 12.5-3.8 12.5-9.9zm44.8-12.7c8.5 0 12.8 4.5 12.8 13.5v23.9q0 .9-.9.9H117q-.9 0-.9-.9V40.6c0-7.3-3.1-10.7-10-10.7-3.9 0-7.7 1-11.3 3 1.2 2 1.7 4.5 1.7 7.6v23.9q0 .9-.9.9h-1.4q-.9 0-.9-.9V40.6c0-7.2-3.4-10.7-10.3-10.7-3.2 0-6 .6-8.5 1.7-1 .5-1.5 1.3-1.5 2.5v30.2c0 .6-.3.9-.8.9H71q-.9 0-.9-.9v-31c0-2.3.7-3.1 2.8-4.1 3.3-1.5 6.9-2.3 10.7-2.3 4.3 0 7.5 1.2 9.7 3.5 4-2.3 8.5-3.5 13.2-3.5" class="st0"/><path d="M156.4 11.4c1.4 0 1.7.4 1.7 1.7v2.5c0 1.4-.4 1.8-1.7 1.8h-12.1c-6.9 0-9.4 2.4-9.4 8.9v1.4h21.4c1.4 0 1.7.4 1.7 1.7v34c0 1.4-.4 1.7-1.7 1.7h-3.1c-1.4 0-1.7-.4-1.7-1.7V33.7H135v29.7c0 1.4-.4 1.7-1.8 1.7h-2.9c-1.4 0-1.8-.4-1.8-1.7V33.7H123c-1.2 0-1.7-.5-1.7-1.7v-2.5c0-1.2.4-1.7 1.7-1.7h5.5v-1.4c0-10.4 4.9-14.9 15.9-14.9h12zm23.7 15.2q14.7 0 14.7 14.4v22.4c0 1.4-.5 1.7-1.7 1.7H190c-1.2 0-1.7-.4-1.7-1.7V41.2c0-5.7-3.1-8.6-9.1-8.6-2.9 0-5.7.4-8.4 1.3-.6.2-.9.7-.9 1.3v28.3c0 1.4-.4 1.7-1.7 1.7h-3.1c-1.2 0-1.7-.5-1.7-1.7V33.1c0-2.3.5-3.1 2.8-4.1 4-1.6 8.7-2.4 13.9-2.4m18.7 14c0-8.7 6.1-13.9 16.3-13.9 10.4 0 16.3 5.2 16.3 13.9v11.8c0 8.6-6 13.9-16.3 13.9-10.2 0-16.3-5.2-16.3-13.9zm26.1-.1c0-5-3.7-8-9.9-8-6.1 0-9.8 3-9.8 8v11.9c0 5 3.7 8 9.8 8 6.2 0 9.9-3 9.9-8z" style="fill:#5a9e33"/><linearGradient id="SVGID_1_" x1="280.614" x2="261.74" y1="61.198" y2="32.556" gradientTransform="translate(-.888 -8.885)" gradientUnits="userSpaceOnUse"><stop offset="0" style="stop-color:#dedc00"/><stop offset=".215" style="stop-color:#95c11f"/><stop offset="1" style="stop-color:#00663a"/></linearGradient><path d="M282.3 36.4c1 0 1.4.7 1 1.6l-4.3 8.6c-.3.6-1.1 1.1-1.8 1.1H272c-3.4 0-6.5-.9-9.2-2.5-3.6-2.4-6-6-6-10.1 0-7.1 6.6-12.9 15.2-12.9-3.9 0-7.1 3.2-7.1 7.1s3.2 7.1 7.1 7.1z" style="fill:url(#SVGID_1_)"/><linearGradient id="SVGID_00000078753130182402882050000017368803777486310534_" x1="258.944" x2="296.109" y1="42.671" y2="3.697" gradientTransform="translate(-.888 -8.885)" gradientUnits="userSpaceOnUse"><stop offset="0" style="stop-color:#dedc00"/><stop offset=".215" style="stop-color:#95c11f"/><stop offset=".416" style="stop-color:#5a9e33"/><stop offset="1" style="stop-color:#5a9e33"/></linearGradient><path d="M253.6 29.3c0-10.2 8.3-18.4 18.4-18.4h10.3c1 0 1.4.7 1 1.6l-4.3 8.6c-.3.6-1.1 1.1-1.8 1.1H272c-8.6 0-15.2 5.8-15.2 12.9 0 4.1 2.3 7.8 6 10.1-5.5-3.1-9.2-9-9.2-15.9" style="fill:url(#SVGID_00000078753130182402882050000017368803777486310534_)"/><path d="M244 2.6h1v52.2h-1z" class="st0"/></svg>