<svg xmlns="http://www.w3.org/2000/svg" width="1000" height="193" fill="none" viewBox="0 0 1000 193"><path fill="url(#a)" fill-rule="evenodd" d="M95.873 0C43.008 0 0 43.162 0 96.216a96.1 96.1 0 0 0 3.956 27.372L60.92 108.21a37 37 0 0 1-1.983-11.994c0-20.122 16.053-36.548 35.984-37.056l.952-.012h26.514c3.611 0 7.869-2.626 9.492-5.865L154.5 8.217c2.279-4.538.017-8.217-5.043-8.217z" clip-rule="evenodd"/><path fill="url(#b)" fill-rule="evenodd" d="M3.956 123.588c7.045 23.753 23.014 43.683 43.976 55.888 14.114 8.216 30.48 12.947 47.94 12.947h26.515c3.611 0 7.869-2.626 9.492-5.865l11.31-22.533 11.311-22.533c2.279-4.538.017-8.217-5.043-8.217v.009H95.873c-16.188 0-29.975-10.501-34.953-25.074z" clip-rule="evenodd"/><path fill="#5a9e33" d="M687.155 138.407q-11.762 0-21.26-5.428-9.5-5.58-15.078-15.229-5.579-9.65-5.579-21.863t5.428-21.712q5.578-9.5 15.078-15.078 9.5-5.58 21.411-5.579 11.76 0 21.259 5.58 9.5 5.427 14.928 14.926 5.578 9.499 5.578 21.863 0 12.365-5.729 22.014-5.73 9.498-15.229 15.078-9.348 5.427-20.807 5.428m0-13.57q7.539 0 13.57-3.77 6.182-3.77 9.65-10.404 3.618-6.633 3.618-14.776 0-8.293-3.618-14.625-3.468-6.484-9.65-10.253-6.031-3.92-13.57-3.92-7.69 0-13.872 3.92-6.031 3.769-9.65 10.253-3.619 6.332-3.619 14.625 0 8.142 3.619 14.776t9.65 10.404q6.182 3.77 13.872 3.77M567.123 136.597v-81.27h13.721V71.16l-2.262-1.357q3.015-7.69 9.65-11.911 6.784-4.373 15.832-4.373 8.745 0 15.53 3.92 6.936 3.921 10.856 10.857 4.071 6.935 4.071 15.68v52.622h-14.173V88.499q0-6.784-2.413-11.46-2.412-4.673-6.936-7.237-4.372-2.714-10.102-2.714-5.729 0-10.253 2.714-4.372 2.564-6.936 7.388-2.562 4.675-2.563 11.309v48.098zM538.881 136.598v-81.27h14.023v81.27zm0-94.237V24.268h14.023V42.36zM495.05 136.597v-67.85h-15.53v-13.42h15.53v-5.729q0-8.745 3.77-14.776 3.92-6.03 10.253-9.198 6.483-3.165 14.324-3.166 1.659 0 3.619.302 2.11.15 3.468.452v12.515q-1.207-.302-2.865-.302-1.659-.15-2.563-.15-6.936 0-11.46 3.316-4.372 3.317-4.372 11.007v5.73h19.299v13.419h-19.299v67.85zM354.813 136.598v-81.27h13.721v16.585l-1.96-2.563q3.015-7.689 9.65-11.76 6.634-4.072 14.927-4.072 9.5 0 17.038 5.278 7.69 5.277 10.554 13.871l-3.92.151q3.166-9.499 10.705-14.324 7.539-4.975 16.737-4.975 8.443 0 15.229 3.92 6.935 3.92 11.006 10.856t4.071 15.68v52.623h-14.173V88.499q0-6.785-2.412-11.459t-6.634-7.237q-4.072-2.714-9.65-2.714-5.429 0-9.801 2.714-4.222 2.562-6.785 7.388-2.413 4.674-2.413 11.308v48.099H406.53V88.499q0-6.785-2.412-11.459t-6.634-7.237q-4.071-2.714-9.65-2.714-5.429 0-9.801 2.714-4.221 2.562-6.785 7.388-2.412 4.674-2.412 11.308v48.099zM302.297 138.407q-11.76 0-21.26-5.428-9.498-5.579-15.078-15.229-5.578-9.65-5.578-21.863t5.428-21.712q5.579-9.498 15.077-15.078 9.5-5.578 21.411-5.578 11.761 0 21.26 5.578 9.499 5.429 14.927 14.927 5.579 9.499 5.579 21.863 0 12.365-5.73 22.014-5.73 9.5-15.228 15.078-9.349 5.428-20.808 5.428m0-13.57q7.539 0 13.57-3.77 6.182-3.77 9.65-10.403 3.62-6.635 3.619-14.777 0-8.292-3.619-14.625-3.468-6.484-9.65-10.253-6.031-3.92-13.57-3.92-7.689 0-13.872 3.92-6.03 3.769-9.649 10.253-3.62 6.333-3.619 14.625 0 8.142 3.619 14.777 3.619 6.633 9.649 10.403 6.183 3.77 13.872 3.77M218.081 138.407q-11.912 0-21.26-5.579-9.197-5.578-14.475-15.229-5.277-9.65-5.277-21.712 0-12.213 5.277-21.712 5.278-9.498 14.475-15.078 9.348-5.578 21.26-5.578 7.992 0 14.927 2.864 6.936 2.865 12.213 7.69t7.69 11.308l-12.515 6.031q-2.864-6.332-8.745-10.252-5.88-4.071-13.57-4.071-7.388 0-13.419 3.769-5.88 3.769-9.349 10.253-3.467 6.483-3.467 14.927 0 8.142 3.467 14.776 3.469 6.484 9.349 10.253 6.031 3.77 13.419 3.77 7.69 0 13.57-3.92 5.88-4.071 8.745-10.706l12.515 6.333q-2.413 6.333-7.69 11.308-5.277 4.825-12.213 7.69t-14.927 2.865"/><path fill="#1b6e44" d="M932.345 169.965q-3.323 0-6.494-.604-3.171-.453-5.739-1.661v-16.612q1.964.453 4.682.906 2.87.453 5.285.453 6.796 0 9.816-3.171 3.172-3.172 5.588-8.306l5.437-12.686-.302 16.612-35.791-90.459h21.293l25.069 66.75h-7.551l24.918-66.75H1000l-35.791 90.459q-3.17 8.004-7.702 13.592-4.53 5.588-10.571 8.457-5.89 3.02-13.591 3.02M868.755 138.402q-8.608 0-14.951-2.869-6.342-2.87-9.816-8.155-3.473-5.436-3.473-12.534 0-6.796 3.02-12.082 3.021-5.436 9.363-9.06 6.343-3.625 16.008-5.135l26.881-4.38V99.29l-23.106 3.926q-5.89 1.058-8.759 3.776t-2.869 7.098q0 4.228 3.171 6.795 3.323 2.417 8.155 2.417 6.192 0 10.873-2.568 4.833-2.718 7.4-7.399 2.719-4.681 2.719-10.27V81.922q0-5.285-4.229-8.759-4.077-3.624-10.873-3.624-6.343 0-11.326 3.473-4.833 3.323-7.098 8.91l-16.159-7.853q2.416-6.493 7.551-11.175 5.285-4.833 12.383-7.55 7.098-2.72 15.404-2.72 10.117.001 17.82 3.776 7.701 3.625 11.93 10.27 4.38 6.494 4.38 15.252v54.668h-18.726v-14.044l4.228-.302q-3.171 5.285-7.551 8.91-4.379 3.473-9.967 5.436-5.588 1.812-12.383 1.812M751.434 166.794V54.437h18.575v16.31l-1.812-4.077q4.228-6.645 11.477-10.27 7.248-3.775 16.763-3.775 11.628 0 20.991 5.739t14.8 15.403q5.587 9.666 5.587 21.747 0 11.93-5.436 21.746-5.437 9.816-14.8 15.555-9.363 5.587-21.293 5.587-8.91 0-16.461-3.473-7.4-3.624-11.779-10.269l3.171-3.927v46.061zm42.587-46.514q6.795 0 12.081-3.171t8.155-8.759q3.02-5.588 3.02-12.836t-3.02-12.686q-2.87-5.587-8.155-8.759-5.286-3.322-12.081-3.322-6.495 0-11.78 3.171-5.134 3.172-8.155 8.91-2.87 5.588-2.869 12.686 0 7.248 2.869 12.836 3.02 5.588 8.155 8.759 5.286 3.171 11.78 3.171"/><defs><linearGradient id="a" x1="-5.889" x2="147.551" y1="79.638" y2="8.884" gradientUnits="userSpaceOnUse"><stop stop-color="#93c021"/><stop offset="1" stop-color="#00663a"/></linearGradient><linearGradient id="b" x1="67.409" x2="106.534" y1="199.199" y2="62.879" gradientUnits="userSpaceOnUse"><stop stop-color="#93c021"/><stop offset="1" stop-color="#00663a"/></linearGradient></defs></svg>